<mxfile host="app.diagrams.net" modified="2024-01-29T04:51:24.964Z" agent="Mozilla/5.0 (Windows NT 10.0; Win64; x64) AppleWebKit/537.36 (KHTML, like Gecko) Chrome/120.0.0.0 Safari/537.36 Edg/120.0.0.0" etag="0PLr7c-RbZKm6K9fORKf" version="23.0.2" type="github">
  <diagram name="第 1 页" id="OCprD9_9p3XkpX2GI5YR">
    <mxGraphModel dx="1688" dy="933" grid="0" gridSize="10" guides="1" tooltips="1" connect="1" arrows="1" fold="1" page="1" pageScale="1" pageWidth="827" pageHeight="1169" math="0" shadow="0">
      <root>
        <mxCell id="0" />
        <mxCell id="1" parent="0" />
        <mxCell id="Hjyp4Mv_Ze4b6qunKPMY-1" value="" style="shape=parallelogram;perimeter=parallelogramPerimeter;whiteSpace=wrap;html=1;fixedSize=1;rotation=15;size=109.99999999999977;" vertex="1" parent="1">
          <mxGeometry x="320.84" y="343.64" width="330.85" height="360" as="geometry" />
        </mxCell>
        <mxCell id="Hjyp4Mv_Ze4b6qunKPMY-2" value="" style="verticalLabelPosition=bottom;verticalAlign=top;html=1;shape=mxgraph.flowchart.or;" vertex="1" parent="1">
          <mxGeometry x="420" y="610" width="10" height="10" as="geometry" />
        </mxCell>
        <mxCell id="Hjyp4Mv_Ze4b6qunKPMY-3" value="" style="verticalLabelPosition=bottom;verticalAlign=top;html=1;shape=mxgraph.flowchart.or;" vertex="1" parent="1">
          <mxGeometry x="440" y="590" width="10" height="10" as="geometry" />
        </mxCell>
        <mxCell id="Hjyp4Mv_Ze4b6qunKPMY-4" value="" style="verticalLabelPosition=bottom;verticalAlign=top;html=1;shape=mxgraph.flowchart.or;" vertex="1" parent="1">
          <mxGeometry x="450" y="560" width="10" height="10" as="geometry" />
        </mxCell>
        <mxCell id="Hjyp4Mv_Ze4b6qunKPMY-5" value="" style="verticalLabelPosition=bottom;verticalAlign=top;html=1;shape=mxgraph.flowchart.or;" vertex="1" parent="1">
          <mxGeometry x="470" y="533.1" width="10" height="10" as="geometry" />
        </mxCell>
        <mxCell id="Hjyp4Mv_Ze4b6qunKPMY-6" value="" style="verticalLabelPosition=bottom;verticalAlign=top;html=1;shape=mxgraph.flowchart.or;" vertex="1" parent="1">
          <mxGeometry x="490" y="500" width="10" height="10" as="geometry" />
        </mxCell>
        <mxCell id="Hjyp4Mv_Ze4b6qunKPMY-15" value="" style="endArrow=none;dashed=1;html=1;rounded=0;entryX=0.613;entryY=0.075;entryDx=0;entryDy=0;entryPerimeter=0;" edge="1" parent="1">
          <mxGeometry width="50" height="50" relative="1" as="geometry">
            <mxPoint x="390" y="674.6" as="sourcePoint" />
            <mxPoint x="544.24" y="401.60000000000014" as="targetPoint" />
          </mxGeometry>
        </mxCell>
        <mxCell id="Hjyp4Mv_Ze4b6qunKPMY-16" value="" style="verticalLabelPosition=bottom;verticalAlign=top;html=1;shape=mxgraph.flowchart.or;" vertex="1" parent="1">
          <mxGeometry x="510" y="460" width="10" height="10" as="geometry" />
        </mxCell>
        <mxCell id="Hjyp4Mv_Ze4b6qunKPMY-17" value="" style="verticalLabelPosition=bottom;verticalAlign=top;html=1;shape=mxgraph.flowchart.or;" vertex="1" parent="1">
          <mxGeometry x="520" y="410" width="10" height="10" as="geometry" />
        </mxCell>
        <mxCell id="Hjyp4Mv_Ze4b6qunKPMY-26" value="" style="shape=parallelogram;perimeter=parallelogramPerimeter;whiteSpace=wrap;html=1;fixedSize=1;rotation=-1;size=109.99999999999977;" vertex="1" parent="1">
          <mxGeometry x="997.5" y="410" width="315" height="360" as="geometry" />
        </mxCell>
        <mxCell id="Hjyp4Mv_Ze4b6qunKPMY-27" value="" style="verticalLabelPosition=bottom;verticalAlign=top;html=1;shape=mxgraph.flowchart.or;" vertex="1" parent="1">
          <mxGeometry x="1140" y="590" width="10" height="10" as="geometry" />
        </mxCell>
        <mxCell id="Hjyp4Mv_Ze4b6qunKPMY-28" value="" style="verticalLabelPosition=bottom;verticalAlign=top;html=1;shape=mxgraph.flowchart.or;" vertex="1" parent="1">
          <mxGeometry x="1160" y="640" width="10" height="10" as="geometry" />
        </mxCell>
        <mxCell id="Hjyp4Mv_Ze4b6qunKPMY-29" value="" style="verticalLabelPosition=bottom;verticalAlign=top;html=1;shape=mxgraph.flowchart.or;" vertex="1" parent="1">
          <mxGeometry x="1090" y="590" width="10" height="10" as="geometry" />
        </mxCell>
        <mxCell id="Hjyp4Mv_Ze4b6qunKPMY-30" value="" style="verticalLabelPosition=bottom;verticalAlign=top;html=1;shape=mxgraph.flowchart.or;" vertex="1" parent="1">
          <mxGeometry x="1110" y="563.1" width="10" height="10" as="geometry" />
        </mxCell>
        <mxCell id="Hjyp4Mv_Ze4b6qunKPMY-31" value="" style="verticalLabelPosition=bottom;verticalAlign=top;html=1;shape=mxgraph.flowchart.or;" vertex="1" parent="1">
          <mxGeometry x="1150" y="550" width="10" height="10" as="geometry" />
        </mxCell>
        <mxCell id="Hjyp4Mv_Ze4b6qunKPMY-33" value="" style="verticalLabelPosition=bottom;verticalAlign=top;html=1;shape=mxgraph.flowchart.or;" vertex="1" parent="1">
          <mxGeometry x="1180" y="590" width="10" height="10" as="geometry" />
        </mxCell>
        <mxCell id="Hjyp4Mv_Ze4b6qunKPMY-34" value="" style="verticalLabelPosition=bottom;verticalAlign=top;html=1;shape=mxgraph.flowchart.or;" vertex="1" parent="1">
          <mxGeometry x="1220" y="560" width="10" height="10" as="geometry" />
        </mxCell>
        <mxCell id="Hjyp4Mv_Ze4b6qunKPMY-35" value="" style="endArrow=classic;html=1;rounded=0;entryX=0.138;entryY=0.356;entryDx=0;entryDy=0;entryPerimeter=0;dashed=1;" edge="1" parent="1" target="Hjyp4Mv_Ze4b6qunKPMY-26">
          <mxGeometry width="50" height="50" relative="1" as="geometry">
            <mxPoint x="1160" y="585" as="sourcePoint" />
            <mxPoint x="1030" y="525" as="targetPoint" />
          </mxGeometry>
        </mxCell>
      </root>
    </mxGraphModel>
  </diagram>
</mxfile>
